<?xml version="1.0" encoding="UTF-8"?>
<svg xmlns="http://www.w3.org/2000/svg" viewBox="0 0 200 200">
    <!-- Body -->
    <circle cx="100" cy="100" r="60" fill="#8B4513"/>
    <!-- Eyes (closed) -->
    <path d="M70 85 Q80 80 90 85" stroke="#FFF" stroke-width="3" fill="none"/>
    <path d="M110 85 Q120 80 130 85" stroke="#FFF" stroke-width="3" fill="none"/>
    <!-- Belly -->
    <circle cx="100" cy="110" r="30" fill="#D2B48C"/>
    <!-- Beak -->
    <path d="M95 95 L100 105 L105 95 Z" fill="#FFD700"/>
    <!-- Wings -->
    <path d="M45 100 Q60 120 75 100" fill="#6B4423"/>
    <path d="M155 100 Q140 120 125 100" fill="#6B4423"/>
    <!-- Feet -->
    <path d="M85 160 L95 140 L105 160" stroke="#FFD700" stroke-width="3" fill="none"/>
    <path d="M95 160 L105 140 L115 160" stroke="#FFD700" stroke-width="3" fill="none"/>
    <!-- ZZZ -->
    <text x="140" y="60" font-family="Arial" font-size="24" fill="#666" transform="rotate(-15 140 60)">z</text>
    <text x="155" y="45" font-family="Arial" font-size="20" fill="#888" transform="rotate(-15 155 45)">z</text>
    <text x="165" y="30" font-family="Arial" font-size="16" fill="#AAA" transform="rotate(-15 165 30)">z</text>
</svg>